<svg width="569" height="260" viewBox="0 0 569 260" fill="none" xmlns="http://www.w3.org/2000/svg">
<path fill-rule="evenodd" clip-rule="evenodd" d="M439 260C510.797 260 569 201.797 569 130C569 58.203 510.797 0 439 0C367.203 0 309 58.203 309 130C309 201.797 367.203 260 439 260ZM439 210C483.183 210 519 174.183 519 130C519 85.8172 483.183 50 439 50C394.817 50 359 85.8172 359 130C359 174.183 394.817 210 439 210Z" fill="#FFD12E"/>
<path fill-rule="evenodd" clip-rule="evenodd" d="M20 10H23.5787C34.1873 10 44.3615 14.2143 51.863 21.7157L96.5685 66.4213C112.19 82.0423 137.516 82.0423 153.137 66.4213L197.843 21.7157C205.344 14.2143 215.518 10 226.127 10H230C241.046 10 250 18.9543 250 30V50C250 50.0543 249.934 50.0815 249.896 50.0431V50.0431C249.872 50.0193 249.834 50.0193 249.81 50.0431L193.284 106.569C177.663 122.189 177.663 147.516 193.284 163.137L249.81 219.662C249.834 219.686 249.872 219.686 249.896 219.662V219.662C249.934 219.624 250 219.651 250 219.706V240C250 251.046 241.046 260 230 260H209.706C209.651 260 209.624 259.934 209.663 259.896V259.896C209.686 259.872 209.686 259.833 209.663 259.81L153.137 203.284C137.516 187.663 112.19 187.663 96.5685 203.284L40.0431 259.81C40.0193 259.833 40.0193 259.872 40.0431 259.896V259.896C40.0815 259.934 40.0543 260 40 260H20C8.9543 260 0 251.046 0 240V236.127C0 225.518 4.21428 215.344 11.7157 207.843L56.4214 163.137C72.0423 147.516 72.0423 122.189 56.4213 106.568L11.7157 61.8629C4.21427 54.3614 0 44.1873 0 33.5786V30C0 18.9543 8.9543 10 20 10Z" fill="#00B7AC"/>
</svg>
